<mxfile host="Electron" agent="Mozilla/5.0 (Windows NT 10.0; Win64; x64) AppleWebKit/537.36 (KHTML, like Gecko) draw.io/25.0.2 Chrome/128.0.6613.186 Electron/32.2.5 Safari/537.36" version="25.0.2" pages="4">
  <diagram id="BdDNVPQ0zvKOdldDlk7v" name="main">
    <mxGraphModel dx="1333" dy="1289" grid="1" gridSize="10" guides="1" tooltips="1" connect="1" arrows="1" fold="1" page="1" pageScale="1" pageWidth="827" pageHeight="1169" math="0" shadow="0">
      <root>
        <mxCell id="0" />
        <mxCell id="1" parent="0" />
        <mxCell id="SY4Lbck4PmglpeI6wIqE-1" value="" style="group" vertex="1" connectable="0" parent="1">
          <mxGeometry x="60" y="40" width="744.5" height="1778" as="geometry" />
        </mxCell>
        <mxCell id="LaGPZ_CU5hZaSA5asp6U-29" value="" style="edgeStyle=orthogonalEdgeStyle;rounded=0;orthogonalLoop=1;jettySize=auto;html=1;" parent="SY4Lbck4PmglpeI6wIqE-1" source="LaGPZ_CU5hZaSA5asp6U-30" target="LaGPZ_CU5hZaSA5asp6U-32" edge="1">
          <mxGeometry relative="1" as="geometry" />
        </mxCell>
        <mxCell id="LaGPZ_CU5hZaSA5asp6U-30" value="Начало" style="strokeWidth=2;html=1;shape=mxgraph.flowchart.start_1;whiteSpace=wrap;" parent="SY4Lbck4PmglpeI6wIqE-1" vertex="1">
          <mxGeometry x="330" width="100" height="60" as="geometry" />
        </mxCell>
        <mxCell id="LaGPZ_CU5hZaSA5asp6U-31" value="" style="edgeStyle=orthogonalEdgeStyle;rounded=0;orthogonalLoop=1;jettySize=auto;html=1;" parent="SY4Lbck4PmglpeI6wIqE-1" source="LaGPZ_CU5hZaSA5asp6U-32" target="LaGPZ_CU5hZaSA5asp6U-37" edge="1">
          <mxGeometry relative="1" as="geometry" />
        </mxCell>
        <mxCell id="LaGPZ_CU5hZaSA5asp6U-32" value="int main()" style="shape=process;whiteSpace=wrap;html=1;backgroundOutline=1;strokeWidth=2;" parent="SY4Lbck4PmglpeI6wIqE-1" vertex="1">
          <mxGeometry x="320" y="100" width="120" height="40" as="geometry" />
        </mxCell>
        <mxCell id="LaGPZ_CU5hZaSA5asp6U-33" value="" style="strokeWidth=2;html=1;shape=mxgraph.flowchart.annotation_1;align=left;pointerEvents=1;" parent="SY4Lbck4PmglpeI6wIqE-1" vertex="1">
          <mxGeometry x="510" y="20" width="50" height="120" as="geometry" />
        </mxCell>
        <mxCell id="LaGPZ_CU5hZaSA5asp6U-34" value="" style="endArrow=none;dashed=1;html=1;rounded=0;entryX=0;entryY=0.5;entryDx=0;entryDy=0;entryPerimeter=0;" parent="SY4Lbck4PmglpeI6wIqE-1" target="LaGPZ_CU5hZaSA5asp6U-33" edge="1">
          <mxGeometry width="50" height="50" relative="1" as="geometry">
            <mxPoint x="380" y="80" as="sourcePoint" />
            <mxPoint x="440" y="90" as="targetPoint" />
          </mxGeometry>
        </mxCell>
        <mxCell id="LaGPZ_CU5hZaSA5asp6U-35" value="&lt;div&gt;#include &amp;lt;iostream&amp;gt;&lt;/div&gt;&lt;div&gt;#include &amp;lt;cmath&amp;gt;&lt;/div&gt;&lt;div&gt;#include &amp;lt;clocale&amp;gt;&lt;/div&gt;&lt;div&gt;using namespace std;&lt;/div&gt;&lt;div&gt;double f(double x):&lt;br&gt;&lt;/div&gt;&lt;div&gt;double phi(double x);&lt;br&gt;&lt;/div&gt;&lt;div&gt;&lt;span style=&quot;background-color: initial;&quot;&gt;double pr_phi(double x);&lt;/span&gt;&lt;/div&gt;&lt;div&gt;&lt;span style=&quot;background-color: initial;&quot;&gt;double a, b, eps;&lt;/span&gt;&lt;br&gt;&lt;/div&gt;" style="text;strokeColor=none;align=left;fillColor=none;html=1;verticalAlign=middle;whiteSpace=wrap;rounded=0;" parent="SY4Lbck4PmglpeI6wIqE-1" vertex="1">
          <mxGeometry x="517.25" y="27.5" width="160" height="105" as="geometry" />
        </mxCell>
        <mxCell id="LaGPZ_CU5hZaSA5asp6U-36" value="" style="edgeStyle=orthogonalEdgeStyle;rounded=0;orthogonalLoop=1;jettySize=auto;html=1;" parent="SY4Lbck4PmglpeI6wIqE-1" source="LaGPZ_CU5hZaSA5asp6U-37" target="LaGPZ_CU5hZaSA5asp6U-39" edge="1">
          <mxGeometry relative="1" as="geometry" />
        </mxCell>
        <mxCell id="LaGPZ_CU5hZaSA5asp6U-37" value="setlocale(LC_ALL, &quot;RU&quot;);" style="whiteSpace=wrap;html=1;strokeWidth=2;" parent="SY4Lbck4PmglpeI6wIqE-1" vertex="1">
          <mxGeometry x="304.5" y="170" width="150" height="40" as="geometry" />
        </mxCell>
        <mxCell id="LaGPZ_CU5hZaSA5asp6U-38" value="" style="edgeStyle=orthogonalEdgeStyle;rounded=0;orthogonalLoop=1;jettySize=auto;html=1;" parent="SY4Lbck4PmglpeI6wIqE-1" source="LaGPZ_CU5hZaSA5asp6U-39" target="LaGPZ_CU5hZaSA5asp6U-41" edge="1">
          <mxGeometry relative="1" as="geometry" />
        </mxCell>
        <mxCell id="LaGPZ_CU5hZaSA5asp6U-39" value="cout &amp;lt;&amp;lt; &quot;Введите границы интервала через пробел: &quot;;" style="shape=parallelogram;perimeter=parallelogramPerimeter;whiteSpace=wrap;html=1;fixedSize=1;strokeWidth=2;" parent="SY4Lbck4PmglpeI6wIqE-1" vertex="1">
          <mxGeometry x="214.5" y="230" width="330" height="40" as="geometry" />
        </mxCell>
        <mxCell id="LaGPZ_CU5hZaSA5asp6U-40" value="" style="edgeStyle=orthogonalEdgeStyle;rounded=0;orthogonalLoop=1;jettySize=auto;html=1;" parent="SY4Lbck4PmglpeI6wIqE-1" source="LaGPZ_CU5hZaSA5asp6U-41" target="LaGPZ_CU5hZaSA5asp6U-44" edge="1">
          <mxGeometry relative="1" as="geometry" />
        </mxCell>
        <mxCell id="LaGPZ_CU5hZaSA5asp6U-41" value="cin &amp;gt;&amp;gt; a &amp;gt;&amp;gt; b;" style="shape=parallelogram;perimeter=parallelogramPerimeter;whiteSpace=wrap;html=1;fixedSize=1;strokeWidth=2;" parent="SY4Lbck4PmglpeI6wIqE-1" vertex="1">
          <mxGeometry x="319.5" y="290" width="120" height="40" as="geometry" />
        </mxCell>
        <mxCell id="LaGPZ_CU5hZaSA5asp6U-42" value="" style="edgeStyle=orthogonalEdgeStyle;rounded=0;orthogonalLoop=1;jettySize=auto;html=1;entryX=0.5;entryY=0;entryDx=0;entryDy=0;" parent="SY4Lbck4PmglpeI6wIqE-1" source="LaGPZ_CU5hZaSA5asp6U-44" target="LaGPZ_CU5hZaSA5asp6U-46" edge="1">
          <mxGeometry relative="1" as="geometry" />
        </mxCell>
        <mxCell id="LaGPZ_CU5hZaSA5asp6U-43" style="edgeStyle=orthogonalEdgeStyle;rounded=0;orthogonalLoop=1;jettySize=auto;html=1;entryX=0.5;entryY=0;entryDx=0;entryDy=0;" parent="SY4Lbck4PmglpeI6wIqE-1" source="LaGPZ_CU5hZaSA5asp6U-44" target="LaGPZ_CU5hZaSA5asp6U-55" edge="1">
          <mxGeometry relative="1" as="geometry">
            <mxPoint x="379.5" y="610" as="targetPoint" />
            <Array as="points">
              <mxPoint x="600" y="400" />
              <mxPoint x="600" y="590" />
              <mxPoint x="380" y="590" />
            </Array>
          </mxGeometry>
        </mxCell>
        <mxCell id="LaGPZ_CU5hZaSA5asp6U-44" value="while (a &amp;gt;= b)" style="rhombus;whiteSpace=wrap;html=1;strokeWidth=2;" parent="SY4Lbck4PmglpeI6wIqE-1" vertex="1">
          <mxGeometry x="329.5" y="370" width="100" height="60" as="geometry" />
        </mxCell>
        <mxCell id="LaGPZ_CU5hZaSA5asp6U-45" value="" style="edgeStyle=orthogonalEdgeStyle;rounded=0;orthogonalLoop=1;jettySize=auto;html=1;" parent="SY4Lbck4PmglpeI6wIqE-1" source="LaGPZ_CU5hZaSA5asp6U-46" target="LaGPZ_CU5hZaSA5asp6U-48" edge="1">
          <mxGeometry relative="1" as="geometry" />
        </mxCell>
        <mxCell id="LaGPZ_CU5hZaSA5asp6U-46" value="&lt;div style=&quot;&quot;&gt;&lt;span style=&quot;white-space: normal;&quot;&gt;&lt;span style=&quot;white-space:pre&quot;&gt;&#x9;&#x9;&lt;/span&gt;cout &amp;lt;&amp;lt; &quot;Левая граница должна быть меньше правой. \&lt;/span&gt;&lt;/div&gt;&lt;div style=&quot;&quot;&gt;Осуществите повторный ввод границ через пробел: &quot;;&lt;/div&gt;" style="shape=parallelogram;perimeter=parallelogramPerimeter;whiteSpace=wrap;html=1;fixedSize=1;strokeWidth=2;align=center;" parent="SY4Lbck4PmglpeI6wIqE-1" vertex="1">
          <mxGeometry x="184.5" y="460" width="390" height="40" as="geometry" />
        </mxCell>
        <mxCell id="LaGPZ_CU5hZaSA5asp6U-47" style="edgeStyle=orthogonalEdgeStyle;rounded=0;orthogonalLoop=1;jettySize=auto;html=1;" parent="SY4Lbck4PmglpeI6wIqE-1" source="LaGPZ_CU5hZaSA5asp6U-48" edge="1">
          <mxGeometry relative="1" as="geometry">
            <Array as="points">
              <mxPoint x="380" y="580" />
              <mxPoint x="160" y="580" />
              <mxPoint x="160" y="350" />
              <mxPoint x="310" y="350" />
            </Array>
            <mxPoint x="380" y="350" as="targetPoint" />
          </mxGeometry>
        </mxCell>
        <mxCell id="LaGPZ_CU5hZaSA5asp6U-48" value="cin &amp;gt;&amp;gt; a &amp;gt;&amp;gt; b;" style="shape=parallelogram;perimeter=parallelogramPerimeter;whiteSpace=wrap;html=1;fixedSize=1;strokeWidth=2;" parent="SY4Lbck4PmglpeI6wIqE-1" vertex="1">
          <mxGeometry x="319.5" y="520" width="120" height="40" as="geometry" />
        </mxCell>
        <mxCell id="LaGPZ_CU5hZaSA5asp6U-49" value="1" style="text;html=1;align=center;verticalAlign=middle;resizable=0;points=[];autosize=1;strokeColor=none;fillColor=none;" parent="SY4Lbck4PmglpeI6wIqE-1" vertex="1">
          <mxGeometry x="353.5" y="430" width="30" height="30" as="geometry" />
        </mxCell>
        <mxCell id="LaGPZ_CU5hZaSA5asp6U-50" value="0" style="text;html=1;align=center;verticalAlign=middle;resizable=0;points=[];autosize=1;strokeColor=none;fillColor=none;" parent="SY4Lbck4PmglpeI6wIqE-1" vertex="1">
          <mxGeometry x="424.5" y="370" width="30" height="30" as="geometry" />
        </mxCell>
        <mxCell id="LaGPZ_CU5hZaSA5asp6U-51" value="{" style="text;html=1;align=center;verticalAlign=middle;resizable=0;points=[];autosize=1;strokeColor=none;fillColor=none;" parent="SY4Lbck4PmglpeI6wIqE-1" vertex="1">
          <mxGeometry x="364.5" y="400" width="30" height="30" as="geometry" />
        </mxCell>
        <mxCell id="LaGPZ_CU5hZaSA5asp6U-52" value="}" style="text;html=1;align=center;verticalAlign=middle;resizable=0;points=[];autosize=1;strokeColor=none;fillColor=none;" parent="SY4Lbck4PmglpeI6wIqE-1" vertex="1">
          <mxGeometry x="370" y="558" width="30" height="30" as="geometry" />
        </mxCell>
        <mxCell id="LaGPZ_CU5hZaSA5asp6U-53" value="{" style="text;html=1;align=center;verticalAlign=middle;resizable=0;points=[];autosize=1;strokeColor=none;fillColor=none;" parent="SY4Lbck4PmglpeI6wIqE-1" vertex="1">
          <mxGeometry x="350" y="140" width="30" height="30" as="geometry" />
        </mxCell>
        <mxCell id="LaGPZ_CU5hZaSA5asp6U-54" value="" style="edgeStyle=orthogonalEdgeStyle;rounded=0;orthogonalLoop=1;jettySize=auto;html=1;entryX=0.5;entryY=0;entryDx=0;entryDy=0;" parent="SY4Lbck4PmglpeI6wIqE-1" source="LaGPZ_CU5hZaSA5asp6U-55" target="LaGPZ_CU5hZaSA5asp6U-57" edge="1">
          <mxGeometry relative="1" as="geometry" />
        </mxCell>
        <mxCell id="LaGPZ_CU5hZaSA5asp6U-55" value="cout &amp;lt;&amp;lt; &quot;Введите точность вычислений: &quot;;" style="shape=parallelogram;perimeter=parallelogramPerimeter;whiteSpace=wrap;html=1;fixedSize=1;strokeWidth=2;" parent="SY4Lbck4PmglpeI6wIqE-1" vertex="1">
          <mxGeometry x="241.75" y="610" width="275.5" height="40" as="geometry" />
        </mxCell>
        <mxCell id="LaGPZ_CU5hZaSA5asp6U-56" value="" style="edgeStyle=orthogonalEdgeStyle;rounded=0;orthogonalLoop=1;jettySize=auto;html=1;" parent="SY4Lbck4PmglpeI6wIqE-1" source="LaGPZ_CU5hZaSA5asp6U-57" target="LaGPZ_CU5hZaSA5asp6U-60" edge="1">
          <mxGeometry relative="1" as="geometry" />
        </mxCell>
        <mxCell id="LaGPZ_CU5hZaSA5asp6U-57" value="cin &amp;gt;&amp;gt; eps;" style="shape=parallelogram;perimeter=parallelogramPerimeter;whiteSpace=wrap;html=1;fixedSize=1;strokeWidth=2;" parent="SY4Lbck4PmglpeI6wIqE-1" vertex="1">
          <mxGeometry x="320" y="670" width="120" height="40" as="geometry" />
        </mxCell>
        <mxCell id="LaGPZ_CU5hZaSA5asp6U-58" style="edgeStyle=orthogonalEdgeStyle;rounded=0;orthogonalLoop=1;jettySize=auto;html=1;entryX=0.5;entryY=0;entryDx=0;entryDy=0;" parent="SY4Lbck4PmglpeI6wIqE-1" source="LaGPZ_CU5hZaSA5asp6U-60" target="LaGPZ_CU5hZaSA5asp6U-62" edge="1">
          <mxGeometry relative="1" as="geometry">
            <mxPoint x="100" y="880" as="targetPoint" />
          </mxGeometry>
        </mxCell>
        <mxCell id="LaGPZ_CU5hZaSA5asp6U-59" value="" style="edgeStyle=orthogonalEdgeStyle;rounded=0;orthogonalLoop=1;jettySize=auto;html=1;exitX=1;exitY=0.5;exitDx=0;exitDy=0;entryX=0.5;entryY=0;entryDx=0;entryDy=0;" parent="SY4Lbck4PmglpeI6wIqE-1" source="LaGPZ_CU5hZaSA5asp6U-60" target="LaGPZ_CU5hZaSA5asp6U-82" edge="1">
          <mxGeometry relative="1" as="geometry" />
        </mxCell>
        <mxCell id="LaGPZ_CU5hZaSA5asp6U-60" value="if (abs(pr_phi(a)) &amp;lt; 1 || abs(pr_phi(b)) &amp;lt; 1)" style="rhombus;whiteSpace=wrap;html=1;strokeWidth=2;" parent="SY4Lbck4PmglpeI6wIqE-1" vertex="1">
          <mxGeometry x="239.5" y="730" width="280" height="80" as="geometry" />
        </mxCell>
        <mxCell id="LaGPZ_CU5hZaSA5asp6U-61" value="" style="edgeStyle=orthogonalEdgeStyle;rounded=0;orthogonalLoop=1;jettySize=auto;html=1;" parent="SY4Lbck4PmglpeI6wIqE-1" source="LaGPZ_CU5hZaSA5asp6U-62" target="LaGPZ_CU5hZaSA5asp6U-66" edge="1">
          <mxGeometry relative="1" as="geometry" />
        </mxCell>
        <mxCell id="LaGPZ_CU5hZaSA5asp6U-62" value="double x0 = b;" style="whiteSpace=wrap;html=1;strokeWidth=2;" parent="SY4Lbck4PmglpeI6wIqE-1" vertex="1">
          <mxGeometry x="104.5" y="880" width="120" height="40" as="geometry" />
        </mxCell>
        <mxCell id="LaGPZ_CU5hZaSA5asp6U-63" value="{" style="text;html=1;align=center;verticalAlign=middle;resizable=0;points=[];autosize=1;strokeColor=none;fillColor=none;" parent="SY4Lbck4PmglpeI6wIqE-1" vertex="1">
          <mxGeometry x="134.5" y="850" width="30" height="30" as="geometry" />
        </mxCell>
        <mxCell id="LaGPZ_CU5hZaSA5asp6U-64" value="1" style="text;html=1;align=center;verticalAlign=middle;resizable=0;points=[];autosize=1;strokeColor=none;fillColor=none;" parent="SY4Lbck4PmglpeI6wIqE-1" vertex="1">
          <mxGeometry x="210" y="738" width="30" height="30" as="geometry" />
        </mxCell>
        <mxCell id="7NhQOSQoNZlppKrp1fVG-2" style="edgeStyle=orthogonalEdgeStyle;rounded=0;orthogonalLoop=1;jettySize=auto;html=1;entryX=0.5;entryY=0;entryDx=0;entryDy=0;" edge="1" parent="SY4Lbck4PmglpeI6wIqE-1" source="LaGPZ_CU5hZaSA5asp6U-66" target="7NhQOSQoNZlppKrp1fVG-1">
          <mxGeometry relative="1" as="geometry" />
        </mxCell>
        <mxCell id="LaGPZ_CU5hZaSA5asp6U-66" value="double x1 = phi(x0);" style="whiteSpace=wrap;html=1;strokeWidth=2;" parent="SY4Lbck4PmglpeI6wIqE-1" vertex="1">
          <mxGeometry x="100.38" y="940" width="128.25" height="40" as="geometry" />
        </mxCell>
        <mxCell id="LaGPZ_CU5hZaSA5asp6U-67" value="" style="edgeStyle=orthogonalEdgeStyle;rounded=0;orthogonalLoop=1;jettySize=auto;html=1;entryX=0.5;entryY=0;entryDx=0;entryDy=0;" parent="SY4Lbck4PmglpeI6wIqE-1" source="LaGPZ_CU5hZaSA5asp6U-68" target="LaGPZ_CU5hZaSA5asp6U-78" edge="1">
          <mxGeometry relative="1" as="geometry">
            <Array as="points">
              <mxPoint x="340" y="1130" />
              <mxPoint x="340" y="1510" />
              <mxPoint x="165" y="1510" />
            </Array>
          </mxGeometry>
        </mxCell>
        <mxCell id="7NhQOSQoNZlppKrp1fVG-16" style="edgeStyle=orthogonalEdgeStyle;rounded=0;orthogonalLoop=1;jettySize=auto;html=1;entryX=0.5;entryY=0;entryDx=0;entryDy=0;" edge="1" parent="SY4Lbck4PmglpeI6wIqE-1" source="LaGPZ_CU5hZaSA5asp6U-68" target="7NhQOSQoNZlppKrp1fVG-14">
          <mxGeometry relative="1" as="geometry" />
        </mxCell>
        <mxCell id="LaGPZ_CU5hZaSA5asp6U-68" value="while (abs(x1 - x0) &amp;gt;= eps)" style="rhombus;whiteSpace=wrap;html=1;strokeWidth=2;" parent="SY4Lbck4PmglpeI6wIqE-1" vertex="1">
          <mxGeometry x="69.5" y="1090" width="190" height="80" as="geometry" />
        </mxCell>
        <mxCell id="LaGPZ_CU5hZaSA5asp6U-70" value="{" style="text;html=1;align=center;verticalAlign=middle;resizable=0;points=[];autosize=1;strokeColor=none;fillColor=none;" parent="SY4Lbck4PmglpeI6wIqE-1" vertex="1">
          <mxGeometry x="149.5" y="1140" width="30" height="30" as="geometry" />
        </mxCell>
        <mxCell id="LaGPZ_CU5hZaSA5asp6U-71" value="" style="edgeStyle=orthogonalEdgeStyle;rounded=0;orthogonalLoop=1;jettySize=auto;html=1;" parent="SY4Lbck4PmglpeI6wIqE-1" source="LaGPZ_CU5hZaSA5asp6U-72" target="LaGPZ_CU5hZaSA5asp6U-75" edge="1">
          <mxGeometry relative="1" as="geometry" />
        </mxCell>
        <mxCell id="LaGPZ_CU5hZaSA5asp6U-72" value="x0 = x1;" style="whiteSpace=wrap;html=1;" parent="SY4Lbck4PmglpeI6wIqE-1" vertex="1">
          <mxGeometry x="124.5" y="1340" width="80" height="35" as="geometry" />
        </mxCell>
        <mxCell id="LaGPZ_CU5hZaSA5asp6U-73" value="1" style="text;html=1;align=center;verticalAlign=middle;resizable=0;points=[];autosize=1;strokeColor=none;fillColor=none;" parent="SY4Lbck4PmglpeI6wIqE-1" vertex="1">
          <mxGeometry x="134.5" y="1170" width="30" height="30" as="geometry" />
        </mxCell>
        <mxCell id="LaGPZ_CU5hZaSA5asp6U-74" style="edgeStyle=orthogonalEdgeStyle;rounded=0;orthogonalLoop=1;jettySize=auto;html=1;exitX=0.5;exitY=1;exitDx=0;exitDy=0;" parent="SY4Lbck4PmglpeI6wIqE-1" source="LaGPZ_CU5hZaSA5asp6U-75" edge="1">
          <mxGeometry relative="1" as="geometry">
            <mxPoint x="164.5" y="1070" as="targetPoint" />
            <Array as="points">
              <mxPoint x="165" y="1470" />
              <mxPoint y="1470" />
              <mxPoint y="1070" />
            </Array>
          </mxGeometry>
        </mxCell>
        <mxCell id="LaGPZ_CU5hZaSA5asp6U-75" value="x1 = phi(x0);" style="whiteSpace=wrap;html=1;" parent="SY4Lbck4PmglpeI6wIqE-1" vertex="1">
          <mxGeometry x="121.75" y="1401" width="85.5" height="40" as="geometry" />
        </mxCell>
        <mxCell id="LaGPZ_CU5hZaSA5asp6U-76" value="}" style="text;html=1;align=center;verticalAlign=middle;resizable=0;points=[];autosize=1;strokeColor=none;fillColor=none;" parent="SY4Lbck4PmglpeI6wIqE-1" vertex="1">
          <mxGeometry x="164.5" y="1441" width="30" height="30" as="geometry" />
        </mxCell>
        <mxCell id="7NhQOSQoNZlppKrp1fVG-19" style="edgeStyle=orthogonalEdgeStyle;rounded=0;orthogonalLoop=1;jettySize=auto;html=1;exitX=0.5;exitY=1;exitDx=0;exitDy=0;" edge="1" parent="SY4Lbck4PmglpeI6wIqE-1" source="LaGPZ_CU5hZaSA5asp6U-78">
          <mxGeometry relative="1" as="geometry">
            <mxPoint x="380" y="1650" as="targetPoint" />
            <Array as="points">
              <mxPoint x="164" y="1650" />
            </Array>
          </mxGeometry>
        </mxCell>
        <mxCell id="LaGPZ_CU5hZaSA5asp6U-78" value="cout &amp;lt;&amp;lt; &quot;Найденное значение корня: &quot; &amp;lt;&amp;lt; x1;" style="shape=parallelogram;perimeter=parallelogramPerimeter;whiteSpace=wrap;html=1;fixedSize=1;strokeWidth=2;" parent="SY4Lbck4PmglpeI6wIqE-1" vertex="1">
          <mxGeometry x="24.5" y="1551" width="280" height="60" as="geometry" />
        </mxCell>
        <mxCell id="LaGPZ_CU5hZaSA5asp6U-79" value="0" style="text;html=1;align=center;verticalAlign=middle;resizable=0;points=[];autosize=1;strokeColor=none;fillColor=none;" parent="SY4Lbck4PmglpeI6wIqE-1" vertex="1">
          <mxGeometry x="254.5" y="1100" width="30" height="30" as="geometry" />
        </mxCell>
        <mxCell id="LaGPZ_CU5hZaSA5asp6U-80" value="}" style="text;html=1;align=center;verticalAlign=middle;resizable=0;points=[];autosize=1;strokeColor=none;fillColor=none;" parent="SY4Lbck4PmglpeI6wIqE-1" vertex="1">
          <mxGeometry x="169.5" y="1609" width="30" height="30" as="geometry" />
        </mxCell>
        <mxCell id="LaGPZ_CU5hZaSA5asp6U-87" style="edgeStyle=orthogonalEdgeStyle;rounded=0;orthogonalLoop=1;jettySize=auto;html=1;exitX=0.5;exitY=1;exitDx=0;exitDy=0;" parent="SY4Lbck4PmglpeI6wIqE-1" edge="1">
          <mxGeometry relative="1" as="geometry">
            <mxPoint x="380" y="1650" as="targetPoint" />
            <mxPoint x="603" y="1106.25" as="sourcePoint" />
            <Array as="points">
              <mxPoint x="601" y="1106" />
              <mxPoint x="601" y="1650" />
            </Array>
          </mxGeometry>
        </mxCell>
        <mxCell id="LaGPZ_CU5hZaSA5asp6U-82" value="cout &amp;lt;&amp;lt; &quot;Корня на интервале не существует.&quot;;" style="shape=parallelogram;perimeter=parallelogramPerimeter;whiteSpace=wrap;html=1;fixedSize=1;strokeWidth=2;" parent="SY4Lbck4PmglpeI6wIqE-1" vertex="1">
          <mxGeometry x="454.5" y="1063.75" width="290" height="42.5" as="geometry" />
        </mxCell>
        <mxCell id="LaGPZ_CU5hZaSA5asp6U-83" value="0" style="text;html=1;align=center;verticalAlign=middle;resizable=0;points=[];autosize=1;strokeColor=none;fillColor=none;" parent="SY4Lbck4PmglpeI6wIqE-1" vertex="1">
          <mxGeometry x="520" y="738" width="30" height="30" as="geometry" />
        </mxCell>
        <mxCell id="LaGPZ_CU5hZaSA5asp6U-84" value="" style="endArrow=classic;html=1;rounded=0;" parent="SY4Lbck4PmglpeI6wIqE-1" target="LaGPZ_CU5hZaSA5asp6U-85" edge="1">
          <mxGeometry width="50" height="50" relative="1" as="geometry">
            <mxPoint x="380" y="1651" as="sourcePoint" />
            <mxPoint x="380" y="1691" as="targetPoint" />
          </mxGeometry>
        </mxCell>
        <mxCell id="LaGPZ_CU5hZaSA5asp6U-85" value="return 0;" style="strokeWidth=2;html=1;shape=mxgraph.flowchart.start_1;whiteSpace=wrap;" parent="SY4Lbck4PmglpeI6wIqE-1" vertex="1">
          <mxGeometry x="330" y="1690.9999999999998" width="100" height="60" as="geometry" />
        </mxCell>
        <mxCell id="7NhQOSQoNZlppKrp1fVG-3" style="edgeStyle=orthogonalEdgeStyle;rounded=0;orthogonalLoop=1;jettySize=auto;html=1;entryX=0.5;entryY=0;entryDx=0;entryDy=0;" edge="1" parent="SY4Lbck4PmglpeI6wIqE-1" source="7NhQOSQoNZlppKrp1fVG-1" target="LaGPZ_CU5hZaSA5asp6U-68">
          <mxGeometry relative="1" as="geometry" />
        </mxCell>
        <mxCell id="7NhQOSQoNZlppKrp1fVG-1" value="int k = 1;" style="whiteSpace=wrap;html=1;strokeWidth=2;" vertex="1" parent="SY4Lbck4PmglpeI6wIqE-1">
          <mxGeometry x="100.37" y="1000" width="128.25" height="40" as="geometry" />
        </mxCell>
        <mxCell id="7NhQOSQoNZlppKrp1fVG-13" style="edgeStyle=orthogonalEdgeStyle;rounded=0;orthogonalLoop=1;jettySize=auto;html=1;entryX=0.5;entryY=0;entryDx=0;entryDy=0;" edge="1" parent="SY4Lbck4PmglpeI6wIqE-1" source="7NhQOSQoNZlppKrp1fVG-14" target="7NhQOSQoNZlppKrp1fVG-15">
          <mxGeometry relative="1" as="geometry">
            <mxPoint x="164.5" y="1270" as="targetPoint" />
          </mxGeometry>
        </mxCell>
        <mxCell id="7NhQOSQoNZlppKrp1fVG-14" value="cout &amp;lt;&amp;lt; &quot;Итерация &quot; &amp;lt;&amp;lt; k &amp;lt;&amp;lt; &#39;:&#39; &amp;lt;&amp;lt; x1 &amp;lt;&amp;lt; endl;" style="shape=parallelogram;perimeter=parallelogramPerimeter;whiteSpace=wrap;html=1;fixedSize=1;" vertex="1" parent="SY4Lbck4PmglpeI6wIqE-1">
          <mxGeometry x="21.75" y="1200" width="285.5" height="40" as="geometry" />
        </mxCell>
        <mxCell id="7NhQOSQoNZlppKrp1fVG-18" style="edgeStyle=orthogonalEdgeStyle;rounded=0;orthogonalLoop=1;jettySize=auto;html=1;entryX=0.5;entryY=0;entryDx=0;entryDy=0;" edge="1" parent="SY4Lbck4PmglpeI6wIqE-1" source="7NhQOSQoNZlppKrp1fVG-15" target="LaGPZ_CU5hZaSA5asp6U-72">
          <mxGeometry relative="1" as="geometry" />
        </mxCell>
        <mxCell id="7NhQOSQoNZlppKrp1fVG-15" value="k++;" style="whiteSpace=wrap;html=1;" vertex="1" parent="SY4Lbck4PmglpeI6wIqE-1">
          <mxGeometry x="123.72" y="1260" width="80" height="35" as="geometry" />
        </mxCell>
        <mxCell id="7NhQOSQoNZlppKrp1fVG-20" value="}" style="text;html=1;align=center;verticalAlign=middle;resizable=0;points=[];autosize=1;strokeColor=none;fillColor=none;" vertex="1" parent="SY4Lbck4PmglpeI6wIqE-1">
          <mxGeometry x="365" y="1748" width="30" height="30" as="geometry" />
        </mxCell>
      </root>
    </mxGraphModel>
  </diagram>
  <diagram name="f" id="thaHPmwi69AGEPI7H7_s">
    <mxGraphModel dx="733" dy="709" grid="0" gridSize="10" guides="1" tooltips="1" connect="1" arrows="1" fold="1" page="1" pageScale="1" pageWidth="827" pageHeight="1169" math="0" shadow="0">
      <root>
        <mxCell id="0" />
        <mxCell id="1" parent="0" />
        <mxCell id="T5-loJu099RTWddmqodP-8" value="" style="group" vertex="1" connectable="0" parent="1">
          <mxGeometry x="150" y="40" width="155" height="150" as="geometry" />
        </mxCell>
        <mxCell id="kQyb74nLRIt_dt5uZiuj-1" value="" style="group" parent="T5-loJu099RTWddmqodP-8" vertex="1" connectable="0">
          <mxGeometry x="8" width="140" height="40" as="geometry" />
        </mxCell>
        <mxCell id="kQyb74nLRIt_dt5uZiuj-2" value="" style="verticalLabelPosition=bottom;verticalAlign=top;html=1;shape=process;whiteSpace=wrap;rounded=1;size=0.08333333333333333;arcSize=6;" parent="kQyb74nLRIt_dt5uZiuj-1" vertex="1">
          <mxGeometry width="140" height="40" as="geometry" />
        </mxCell>
        <mxCell id="kQyb74nLRIt_dt5uZiuj-3" value="&lt;font&gt;double f(double x)&lt;/font&gt;" style="text;strokeColor=none;align=center;fillColor=none;html=1;verticalAlign=middle;whiteSpace=wrap;rounded=0;" parent="kQyb74nLRIt_dt5uZiuj-1" vertex="1">
          <mxGeometry x="20" y="5" width="100" height="30" as="geometry" />
        </mxCell>
        <mxCell id="kQyb74nLRIt_dt5uZiuj-4" value="return x - 2 + sin(1 / x);" style="ellipse;whiteSpace=wrap;html=1;" parent="T5-loJu099RTWddmqodP-8" vertex="1">
          <mxGeometry y="82" width="155" height="40" as="geometry" />
        </mxCell>
        <mxCell id="kQyb74nLRIt_dt5uZiuj-5" value="" style="edgeStyle=orthogonalEdgeStyle;rounded=0;orthogonalLoop=1;jettySize=auto;html=1;exitX=0.5;exitY=1;exitDx=0;exitDy=0;entryX=0.5;entryY=0;entryDx=0;entryDy=0;" parent="T5-loJu099RTWddmqodP-8" source="kQyb74nLRIt_dt5uZiuj-2" target="kQyb74nLRIt_dt5uZiuj-4" edge="1">
          <mxGeometry relative="1" as="geometry">
            <mxPoint x="77.5" y="52" as="sourcePoint" />
          </mxGeometry>
        </mxCell>
        <mxCell id="kQyb74nLRIt_dt5uZiuj-6" value="{" style="text;html=1;align=center;verticalAlign=middle;resizable=0;points=[];autosize=1;strokeColor=none;fillColor=none;" parent="T5-loJu099RTWddmqodP-8" vertex="1">
          <mxGeometry x="48" y="40" width="30" height="30" as="geometry" />
        </mxCell>
        <mxCell id="kQyb74nLRIt_dt5uZiuj-7" value="}" style="text;html=1;align=center;verticalAlign=middle;resizable=0;points=[];autosize=1;strokeColor=none;fillColor=none;" parent="T5-loJu099RTWddmqodP-8" vertex="1">
          <mxGeometry x="63" y="120" width="30" height="30" as="geometry" />
        </mxCell>
      </root>
    </mxGraphModel>
  </diagram>
  <diagram id="IXZdovXcuP89MHTPLzhb" name="phi">
    <mxGraphModel dx="733" dy="709" grid="1" gridSize="10" guides="1" tooltips="1" connect="1" arrows="1" fold="1" page="1" pageScale="1" pageWidth="827" pageHeight="1169" math="0" shadow="0">
      <root>
        <mxCell id="0" />
        <mxCell id="1" parent="0" />
        <mxCell id="ZrOnUklBc_-KaRcN_dM1-1" value="" style="group" vertex="1" connectable="0" parent="1">
          <mxGeometry x="318" y="40" width="160" height="150" as="geometry" />
        </mxCell>
        <mxCell id="PmKUFmGDoUWja_1Ofe9U-1" value="" style="group" parent="ZrOnUklBc_-KaRcN_dM1-1" vertex="1" connectable="0">
          <mxGeometry width="160" height="40" as="geometry" />
        </mxCell>
        <mxCell id="PmKUFmGDoUWja_1Ofe9U-2" value="" style="verticalLabelPosition=bottom;verticalAlign=top;html=1;shape=process;whiteSpace=wrap;rounded=1;size=0.08333333333333333;arcSize=6;" parent="PmKUFmGDoUWja_1Ofe9U-1" vertex="1">
          <mxGeometry width="160" height="40" as="geometry" />
        </mxCell>
        <mxCell id="PmKUFmGDoUWja_1Ofe9U-3" value="&lt;font&gt;double phi(double x)&lt;/font&gt;" style="text;strokeColor=none;align=center;fillColor=none;html=1;verticalAlign=middle;whiteSpace=wrap;rounded=0;" parent="PmKUFmGDoUWja_1Ofe9U-1" vertex="1">
          <mxGeometry x="20" y="5" width="120" height="30" as="geometry" />
        </mxCell>
        <mxCell id="PmKUFmGDoUWja_1Ofe9U-4" value="return 2 - sin(1 / x);" style="ellipse;whiteSpace=wrap;html=1;" parent="ZrOnUklBc_-KaRcN_dM1-1" vertex="1">
          <mxGeometry x="2" y="82" width="155" height="40" as="geometry" />
        </mxCell>
        <mxCell id="PmKUFmGDoUWja_1Ofe9U-5" value="" style="edgeStyle=orthogonalEdgeStyle;rounded=0;orthogonalLoop=1;jettySize=auto;html=1;exitX=0.5;exitY=1;exitDx=0;exitDy=0;entryX=0.5;entryY=0;entryDx=0;entryDy=0;" parent="ZrOnUklBc_-KaRcN_dM1-1" source="PmKUFmGDoUWja_1Ofe9U-2" target="PmKUFmGDoUWja_1Ofe9U-4" edge="1">
          <mxGeometry relative="1" as="geometry">
            <mxPoint x="79.5" y="52" as="sourcePoint" />
          </mxGeometry>
        </mxCell>
        <mxCell id="PmKUFmGDoUWja_1Ofe9U-6" value="{" style="text;html=1;align=center;verticalAlign=middle;resizable=0;points=[];autosize=1;strokeColor=none;fillColor=none;" parent="ZrOnUklBc_-KaRcN_dM1-1" vertex="1">
          <mxGeometry x="50" y="40" width="30" height="30" as="geometry" />
        </mxCell>
        <mxCell id="PmKUFmGDoUWja_1Ofe9U-7" value="}" style="text;html=1;align=center;verticalAlign=middle;resizable=0;points=[];autosize=1;strokeColor=none;fillColor=none;" parent="ZrOnUklBc_-KaRcN_dM1-1" vertex="1">
          <mxGeometry x="65" y="120" width="30" height="30" as="geometry" />
        </mxCell>
      </root>
    </mxGraphModel>
  </diagram>
  <diagram id="e6putcFAKZrnZkI1epgh" name="pr_phi">
    <mxGraphModel dx="733" dy="709" grid="1" gridSize="10" guides="1" tooltips="1" connect="1" arrows="1" fold="1" page="1" pageScale="1" pageWidth="827" pageHeight="1169" math="0" shadow="0">
      <root>
        <mxCell id="0" />
        <mxCell id="1" parent="0" />
        <mxCell id="HIrzyT1QM5W4ZdDJX3QU-1" value="" style="group" vertex="1" connectable="0" parent="1">
          <mxGeometry x="310" y="40" width="182" height="150" as="geometry" />
        </mxCell>
        <mxCell id="2f9xk-9G5fIcgQH0Kvaj-1" value="" style="group" parent="HIrzyT1QM5W4ZdDJX3QU-1" vertex="1" connectable="0">
          <mxGeometry width="182" height="40" as="geometry" />
        </mxCell>
        <mxCell id="2f9xk-9G5fIcgQH0Kvaj-2" value="" style="verticalLabelPosition=bottom;verticalAlign=top;html=1;shape=process;whiteSpace=wrap;rounded=1;size=0.08333333333333333;arcSize=6;" parent="2f9xk-9G5fIcgQH0Kvaj-1" vertex="1">
          <mxGeometry width="182" height="40" as="geometry" />
        </mxCell>
        <mxCell id="2f9xk-9G5fIcgQH0Kvaj-3" value="&lt;font&gt;double pr_phi(double x)&lt;/font&gt;" style="text;strokeColor=none;align=center;fillColor=none;html=1;verticalAlign=middle;whiteSpace=wrap;rounded=0;" parent="2f9xk-9G5fIcgQH0Kvaj-1" vertex="1">
          <mxGeometry x="22.75" y="5" width="136.5" height="30" as="geometry" />
        </mxCell>
        <mxCell id="2f9xk-9G5fIcgQH0Kvaj-4" value="return cos(1 / x) / pow(x, 2);" style="ellipse;whiteSpace=wrap;html=1;" parent="HIrzyT1QM5W4ZdDJX3QU-1" vertex="1">
          <mxGeometry x="2.75" y="80" width="176.5" height="40" as="geometry" />
        </mxCell>
        <mxCell id="2f9xk-9G5fIcgQH0Kvaj-5" value="" style="edgeStyle=orthogonalEdgeStyle;rounded=0;orthogonalLoop=1;jettySize=auto;html=1;exitX=0.5;exitY=1;exitDx=0;exitDy=0;entryX=0.5;entryY=0;entryDx=0;entryDy=0;" parent="HIrzyT1QM5W4ZdDJX3QU-1" source="2f9xk-9G5fIcgQH0Kvaj-2" target="2f9xk-9G5fIcgQH0Kvaj-4" edge="1">
          <mxGeometry relative="1" as="geometry">
            <mxPoint x="87.5" y="52" as="sourcePoint" />
          </mxGeometry>
        </mxCell>
        <mxCell id="2f9xk-9G5fIcgQH0Kvaj-6" value="{" style="text;html=1;align=center;verticalAlign=middle;resizable=0;points=[];autosize=1;strokeColor=none;fillColor=none;" parent="HIrzyT1QM5W4ZdDJX3QU-1" vertex="1">
          <mxGeometry x="58" y="40" width="30" height="30" as="geometry" />
        </mxCell>
        <mxCell id="2f9xk-9G5fIcgQH0Kvaj-7" value="}" style="text;html=1;align=center;verticalAlign=middle;resizable=0;points=[];autosize=1;strokeColor=none;fillColor=none;" parent="HIrzyT1QM5W4ZdDJX3QU-1" vertex="1">
          <mxGeometry x="74" y="120" width="30" height="30" as="geometry" />
        </mxCell>
      </root>
    </mxGraphModel>
  </diagram>
</mxfile>
